Coordinates
version=1
nRows=8
nColumns=36
inDegrees=yes

Units are S.I. units (second, meters, Newtons, ...)
If the header above contains a line with 'inDegrees', this indicates whether rotational values are in degrees (yes) or radians (no).

endheader
time	pelvis_tilt	pelvis_list	pelvis_rotation	pelvis_tx	pelvis_ty	pelvis_tz	hip_flexion_r	hip_adduction_r	hip_rotation_r	knee_angle_r	knee_angle_r_beta	ankle_angle_r	subtalar_angle_r	mtp_angle_r	hip_flexion_l	hip_adduction_l	hip_rotation_l	knee_angle_l	knee_angle_l_beta	ankle_angle_l	subtalar_angle_l	mtp_angle_l	lumbar_extension	lumbar_bending	lumbar_rotation	arm_flex_r	arm_add_r	arm_rot_r	elbow_flex_r	pro_sup_r	arm_flex_l	arm_add_l	arm_rot_l	elbow_flex_l	pro_sup_l
      3.75000000	     -6.14136289	     -1.88829807	      2.36620143	      1.35008719	      0.97665680	     -0.44890897	     17.01560264	     -1.63662935	     -4.59602457	     23.87044859	      0.41661792	     12.93031387	     -9.30586165	     -7.49999987	     15.41893919	     -7.62839864	     -0.07984451	     23.31704497	      0.40695921	     17.51252998	     -0.75821724	     -7.49999987	     -2.55726227	      3.58567445	      4.19521903	     32.10686330	    -14.45378161	     39.85569591	    135.26279972	     96.09692305	    204.90813351	   -170.36687691	    213.06922894	     72.23401848	    101.82392807
      3.76666670	     -5.63956582	     -1.83386925	      2.46475444	      1.34990039	      0.98008846	     -0.44915582	     15.96784662	     -1.61919771	     -4.50382333	     22.80482384	      0.39801926	     12.52931697	     -9.36592569	     -7.49999987	     14.41500644	     -7.48781555	      0.02280220	     22.28707141	      0.38898278	     17.26717105	     -0.69109353	     -7.49999987	     -3.18303823	      3.67358551	      4.04647434	     33.00383419	    -13.04505881	     41.24160463	    136.59475361	     94.70407366	    204.20489481	   -171.18028869	    212.80710561	     70.16165785	     99.69438613
      3.78333330	     -5.11484750	     -1.71414274	      2.47916966	      1.34900707	      0.98064202	     -0.44926700	     15.00914854	     -1.65056200	     -4.32824724	     21.93734589	      0.38287891	     12.25055699	     -9.30450114	     -7.49999987	     13.32434094	     -7.30235350	      0.01429931	     21.19611033	      0.36994191	     16.94250256	     -0.63599768	     -7.49999987	     -3.51126474	      3.65202301	      4.25866083	     33.21924068	    -11.63517023	     41.50381719	    137.52233398	     96.17089456	    204.37535668	   -172.45583532	    213.47351954	     66.37532571	    101.34723171
      3.80000000	     -4.62629022	     -1.62381273	      2.48407366	      1.34874740	      0.97886635	     -0.44896211	     14.13821061	     -1.68789339	     -4.21409257	     21.20287813	      0.37006003	     12.01819732	     -9.27018363	     -7.49999987	     12.40367490	     -7.14776439	      0.11984146	     20.39231445	      0.35591303	     16.67796100	     -0.73295562	     -7.49999987	     -4.00875505	      3.75901458	      3.80004219	     34.39518937	     -9.56079322	     42.24222554	    137.91214399	     97.06017288	    203.52628117	   -173.22460608	    213.22487713	     63.55011150	    102.03092189
      3.81666670	     -4.01055614	     -1.58546425	      2.49827131	      1.35225049	      0.98909675	     -0.44612442	     12.82775722	     -1.61609218	     -4.11235683	     20.05334016	      0.34999681	     11.69720790	     -9.10203213	     -7.49999987	     11.14838581	     -7.10944699	      0.10876950	     19.25363266	      0.33603928	     16.29927037	     -0.58235879	     -7.49999987	     -4.59559321	      3.73673024	      4.33862260	     34.52526026	     -8.40811853	     42.50753142	    138.50840815	     98.42112287	    203.30367728	   -174.39548472	    214.11023865	     59.05627829	    102.29011428
      3.83333330	     -3.43379965	     -1.50350129	      2.60921565	      1.34804840	      0.99305356	     -0.44802457	     11.70377845	     -1.63905637	     -4.17391581	     19.11641750	      0.33364443	     11.40067139	     -8.95874835	     -7.49999987	     10.05366065	     -6.97773685	      0.31750169	     18.22106627	      0.31801760	     15.78583143	     -0.60607793	     -7.49999987	     -5.39202030	      3.75736872	      4.22697540	     35.07230773	     -7.50659728	     43.17517861	    138.76289855	     98.71830282	    202.46665020	   -175.23242650	    213.34123356	     55.74831642	    102.12534937
      3.85000000	     -2.73773535	     -1.45656879	      2.64204663	      1.35175880	      1.00052517	     -0.44564996	     10.29917492	     -1.55797466	     -4.16425648	     17.96110673	      0.31348045	     11.03865124	     -8.74814773	     -7.49999987	      8.63624116	     -6.93197574	      0.32985234	     16.90575619	      0.29506111	     15.18508277	     -0.47609056	     -7.49999987	     -6.24629277	      3.74999332	      4.48085343	     34.69568754	     -6.96117542	     43.50725444	    138.72458725	     99.06324281	    201.14632980	   -176.19904058	    212.19547482	     51.69103119	    101.73205803
      3.86666670	     -2.33693316	     -1.39069610	      2.71441934	      1.34741989	      1.00223417	     -0.44780190	      9.43726872	     -1.53660278	     -4.18637069	     17.14129788	      0.29917209	     10.67708587	     -8.54575761	     -7.49999987	      7.72086569	     -6.83452416	      0.40963582	     15.81691464	      0.27605724	     14.63126421	     -0.29388420	     -7.49999987	     -6.72461140	      3.70391952	      4.49764948	     34.13347077	     -6.31349718	     43.54134234	    138.46871764	     99.55111727	    199.96834411	   -176.85607715	    211.36044791	     47.75422232	    101.31574297
